REM DIRINDEX 1\2\5,1\2\6,1\2\7,1\2\8,1\3\9,1\3\10,1\3\11,1\4\12,1\4\13,1\4\14,1\4\15,1\4\16
REM DIRNAME folder01,folder02,folder03,folder04,folder05,folder06,folder07,folder08,folder09,folder10,folder11,folder12,folder13,folder14,folder15,folder16
TITLE ""
FILE "1200_sec02_0500_0508.mp3" MP3
  TRACK 01 AUDIO
    TITLE "0:"
    INDEX 01 00:00:00
  TRACK 02 AUDIO
    TITLE "12:cjc034_05643"
    INDEX 01 00:00:17
  TRACK 03 AUDIO
    TITLE "0:"
    INDEX 01 00:01:24
  TRACK 04 AUDIO
    TITLE "13:cjc034_05644"
    INDEX 01 00:01:58
  TRACK 05 AUDIO
    TITLE "0:"
    INDEX 01 00:02:69
  TRACK 06 AUDIO
    TITLE "14:cjc034_05645"
    INDEX 01 00:03:27
  TRACK 07 AUDIO
    TITLE "0:"
    INDEX 01 00:04:31
  TRACK 08 AUDIO
    TITLE "15:cjc034_05646"
    INDEX 01 00:04:66
  TRACK 09 AUDIO
    TITLE "0:"
    INDEX 01 00:11:60
  TRACK 10 AUDIO
    TITLE "16:cjc034_05647"
    INDEX 01 00:13:18
  TRACK 11 AUDIO
    TITLE "0:"
    INDEX 01 00:14:68
  TRACK 12 AUDIO
    TITLE "12:cjc034_05648"
    INDEX 01 00:15:72
  TRACK 13 AUDIO
    TITLE "0:"
    INDEX 01 00:17:00
  TRACK 14 AUDIO
    TITLE "13:cjc034_05649"
    INDEX 01 00:17:29
  TRACK 15 AUDIO
    TITLE "0:"
    INDEX 01 00:21:13
  TRACK 16 AUDIO
    TITLE "14:cjc034_05650"
    INDEX 01 00:21:49
  TRACK 17 AUDIO
    TITLE "0:"
    INDEX 01 00:22:52
  TRACK 18 AUDIO
    TITLE "15:cjc034_05651"
    INDEX 01 00:23:10
  TRACK 19 AUDIO
    TITLE "0:"
    INDEX 01 00:27:20
  TRACK 20 AUDIO
    TITLE "12:cjc034_05652"
    INDEX 01 00:28:51
  TRACK 21 AUDIO
    TITLE "0:"
    INDEX 01 00:29:50
  TRACK 22 AUDIO
    TITLE "13:cjc034_05653"
    INDEX 01 00:30:08
  TRACK 23 AUDIO
    TITLE "0:"
    INDEX 01 00:36:33
  TRACK 24 AUDIO
    TITLE "14:cjc034_05654"
    INDEX 01 00:36:66
  TRACK 25 AUDIO
    TITLE "0:"
    INDEX 01 00:37:65
  TRACK 26 AUDIO
    TITLE "15:cjc034_05655"
    INDEX 01 00:38:22
  TRACK 27 AUDIO
    TITLE "0:"
    INDEX 01 00:42:66
  TRACK 28 AUDIO
    TITLE "12:cjc034_05656"
    INDEX 01 00:44:22
  TRACK 29 AUDIO
    TITLE "0:"
    INDEX 01 00:45:28
  TRACK 30 AUDIO
    TITLE "13:cjc034_05657"
    INDEX 01 00:45:61
  TRACK 31 AUDIO
    TITLE "0:"
    INDEX 01 00:48:02
  TRACK 32 AUDIO
    TITLE "14:cjc034_05658"
    INDEX 01 00:48:32
  TRACK 33 AUDIO
    TITLE "0:"
    INDEX 01 00:49:39
  TRACK 34 AUDIO
    TITLE "15:cjc034_05659"
    INDEX 01 00:49:72
  TRACK 35 AUDIO
    TITLE "0:"
    INDEX 01 00:53:60
  TRACK 36 AUDIO
    TITLE "12:cjc034_05660"
    INDEX 01 00:55:16
  TRACK 37 AUDIO
    TITLE "0:"
    INDEX 01 00:56:10
  TRACK 38 AUDIO
    TITLE "13:cjc034_05661"
    INDEX 01 00:56:45
  TRACK 39 AUDIO
    TITLE "0:"
    INDEX 01 00:57:48
  TRACK 40 AUDIO
    TITLE "14:cjc034_05662"
    INDEX 01 00:58:05
  TRACK 41 AUDIO
    TITLE "0:"
    INDEX 01 00:59:02
  TRACK 42 AUDIO
    TITLE "15:cjc034_05663"
    INDEX 01 00:59:36
  TRACK 43 AUDIO
    TITLE "0:"
    INDEX 01 01:04:23
  TRACK 44 AUDIO
    TITLE "12:cjc034_05664"
    INDEX 01 01:05:58
  TRACK 45 AUDIO
    TITLE "0:"
    INDEX 01 01:07:00
  TRACK 46 AUDIO
    TITLE "13:cjc034_05665"
    INDEX 01 01:07:33
  TRACK 47 AUDIO
    TITLE "0:"
    INDEX 01 01:10:65
  TRACK 48 AUDIO
    TITLE "14:cjc034_05666"
    INDEX 01 01:11:25
  TRACK 49 AUDIO
    TITLE "0:"
    INDEX 01 01:12:46
  TRACK 50 AUDIO
    TITLE "15:cjc034_05667"
    INDEX 01 01:13:02
  TRACK 51 AUDIO
    TITLE "0:"
    INDEX 01 01:16:12
  TRACK 52 AUDIO
    TITLE "12:cjc034_05668"
    INDEX 01 01:17:43
  TRACK 53 AUDIO
    TITLE "0:"
    INDEX 01 01:18:54
  TRACK 54 AUDIO
    TITLE "13:cjc034_05669"
    INDEX 01 01:19:13
  TRACK 55 AUDIO
    TITLE "0:"
    INDEX 01 01:21:16
  TRACK 56 AUDIO
    TITLE "14:cjc034_05670"
    INDEX 01 01:21:49
  TRACK 57 AUDIO
    TITLE "0:"
    INDEX 01 01:22:60
  TRACK 58 AUDIO
    TITLE "15:cjc034_05671"
    INDEX 01 01:23:18
  TRACK 59 AUDIO
    TITLE "0:"
    INDEX 01 01:27:51
  TRACK 60 AUDIO
    TITLE "12:cjc034_05672"
    INDEX 01 01:29:09
  TRACK 61 AUDIO
    TITLE "0:"
    INDEX 01 01:30:17
  TRACK 62 AUDIO
    TITLE "13:cjc034_05673"
    INDEX 01 01:30:52
  TRACK 63 AUDIO
    TITLE "0:"
    INDEX 01 01:33:42
  TRACK 64 AUDIO
    TITLE "14:cjc034_05674"
    INDEX 01 01:33:74
  TRACK 65 AUDIO
    TITLE "0:"
    INDEX 01 01:35:06
  TRACK 66 AUDIO
    TITLE "15:cjc034_05675"
    INDEX 01 01:35:39
  TRACK 67 AUDIO
    TITLE "0:"
    INDEX 01 01:40:13
  TRACK 68 AUDIO
    TITLE "12:cjc034_05676"
    INDEX 01 01:41:48
  TRACK 69 AUDIO
    TITLE "0:"
    INDEX 01 01:42:57
  TRACK 70 AUDIO
    TITLE "13:cjc034_05677"
    INDEX 01 01:43:15
  TRACK 71 AUDIO
    TITLE "0:"
    INDEX 01 01:44:73
  TRACK 72 AUDIO
    TITLE "14:cjc034_05678"
    INDEX 01 01:45:30
  TRACK 73 AUDIO
    TITLE "0:"
    INDEX 01 01:46:39
  TRACK 74 AUDIO
    TITLE "15:cjc034_05679"
    INDEX 01 01:46:72
  TRACK 75 AUDIO
    TITLE "0:"
    INDEX 01 01:51:09
